<?xml version="1.0" encoding="utf-8"?>
<svg viewBox="169.242 47.753 103.23 45.646" xmlns="http://www.w3.org/2000/svg">
  <g transform="matrix(1, 0, 0, 1, 0, 7.105427357601002e-15)">
    <path d="M 188.422 67.706 Q 187.662 68.697 186.315 69.207 Q 184.968 69.716 183.256 69.716 Q 181.496 69.716 180.139 68.918 Q 178.783 68.12 178.047 66.633 Q 177.311 65.147 177.283 63.166 L 177.283 62.069 Q 177.283 58.895 178.802 57.111 Q 180.322 55.326 183.044 55.326 Q 185.382 55.326 186.757 56.48 Q 188.133 57.635 188.412 59.809 L 186.026 59.809 Q 185.622 57.279 183.093 57.279 Q 181.457 57.279 180.606 58.457 Q 179.755 59.636 179.726 61.915 L 179.726 62.993 Q 179.726 65.263 180.683 66.518 Q 181.64 67.773 183.343 67.773 Q 185.209 67.773 185.998 66.927 L 185.998 64.185 L 183.112 64.185 L 183.112 62.339 L 188.422 62.339 Z" style="fill: rgb(255, 255, 255); white-space: pre;"/>
    <path d="M 199.265 63.272 L 193.512 63.272 L 193.512 67.581 L 200.236 67.581 L 200.236 69.524 L 191.079 69.524 L 191.079 55.519 L 200.169 55.519 L 200.169 57.481 L 193.512 57.481 L 193.512 61.348 L 199.265 61.348 Z" style="fill: rgb(255, 255, 255); white-space: pre;"/>
    <path d="M 212.528 57.481 L 208.161 57.481 L 208.161 69.524 L 205.746 69.524 L 205.746 57.481 L 201.418 57.481 L 201.418 55.519 L 212.528 55.519 Z" style="fill: rgb(255, 255, 255); white-space: pre;"/>
    <path d="M 199.89 96.708 L 198.053 96.708 L 203.565 81.501 L 205.402 81.501 Z" transform="matrix(3.415546, 0, 0, 2.296711, -474.097687, -133.022079)" style="fill: rgb(255, 255, 255); white-space: pre;"/>
    <path d="M 223.66 79.067 L 223.66 84.271 L 221.227 84.271 L 221.227 70.266 L 226.584 70.266 Q 228.932 70.266 230.312 71.487 Q 231.692 72.709 231.692 74.719 Q 231.692 76.778 230.341 77.922 Q 228.989 79.067 226.556 79.067 Z M 223.66 77.114 L 226.584 77.114 Q 227.883 77.114 228.566 76.504 Q 229.249 75.893 229.249 74.738 Q 229.249 73.603 228.556 72.925 Q 227.864 72.247 226.652 72.228 L 223.66 72.228 Z" style="fill: rgb(57, 255, 20); white-space: pre;"/>
    <path d="M 244.984 77.634 Q 244.984 79.692 244.272 81.246 Q 243.56 82.799 242.237 83.631 Q 240.915 84.463 239.193 84.463 Q 237.49 84.463 236.158 83.631 Q 234.826 82.799 234.1 81.26 Q 233.373 79.721 233.364 77.711 L 233.364 76.922 Q 233.364 74.873 234.09 73.305 Q 234.816 71.737 236.139 70.905 Q 237.461 70.073 239.174 70.073 Q 240.886 70.073 242.209 70.896 Q 243.531 71.718 244.253 73.262 Q 244.974 74.806 244.984 76.855 Z M 242.55 76.903 Q 242.55 74.575 241.67 73.334 Q 240.79 72.093 239.174 72.093 Q 237.596 72.093 236.706 73.329 Q 235.817 74.565 235.797 76.826 L 235.797 77.634 Q 235.797 79.942 236.697 81.202 Q 237.596 82.463 239.193 82.463 Q 240.809 82.463 241.679 81.231 Q 242.55 80 242.55 77.634 Z" style="fill: rgb(57, 255, 20); white-space: pre;"/>
    <path d="M 254.722 80.664 Q 254.722 79.74 254.072 79.24 Q 253.423 78.74 251.73 78.23 Q 250.037 77.72 249.037 77.095 Q 247.123 75.893 247.123 73.959 Q 247.123 72.266 248.503 71.17 Q 249.883 70.073 252.086 70.073 Q 253.548 70.073 254.693 70.612 Q 255.838 71.15 256.492 72.146 Q 257.146 73.142 257.146 74.354 L 254.722 74.354 Q 254.722 73.257 254.034 72.637 Q 253.346 72.016 252.067 72.016 Q 250.874 72.016 250.215 72.526 Q 249.556 73.036 249.556 73.95 Q 249.556 74.719 250.268 75.234 Q 250.98 75.748 252.615 76.234 Q 254.25 76.72 255.241 77.34 Q 256.232 77.961 256.694 78.764 Q 257.155 79.567 257.155 80.645 Q 257.155 82.395 255.814 83.429 Q 254.472 84.463 252.173 84.463 Q 250.653 84.463 249.378 83.901 Q 248.104 83.338 247.397 82.347 Q 246.69 81.356 246.69 80.039 L 249.123 80.039 Q 249.123 81.231 249.912 81.885 Q 250.701 82.54 252.173 82.54 Q 253.442 82.54 254.082 82.025 Q 254.722 81.51 254.722 80.664 Z" style="fill: rgb(57, 255, 20); white-space: pre;"/>
    <path d="M 269.413 72.228 L 265.046 72.228 L 265.046 84.271 L 262.631 84.271 L 262.631 72.228 L 258.303 72.228 L 258.303 70.266 L 269.413 70.266 Z" style="fill: rgb(57, 255, 20); white-space: pre;"/>
  </g>
</svg>